<svg xmlns="http://www.w3.org/2000/svg" viewBox="0 0 24 24"><path d="M21.376 24H2.624c-1.027 0-1.937-.578-2.373-1.509-.436-.931-.298-1.999.36-2.789l8.006-9.524A.4998.4998 0 0 1 9 10h5.902c.146 0 .286.064.381.176l8.103 9.522c.661.794.799 1.862.363 2.793-.437.931-1.346 1.509-2.373 1.509ZM5.882 14.986l-4.504 5.358c-.411.494-.495 1.139-.221 1.723.273.584.821.933 1.467.933h18.752c.646 0 1.193-.349 1.467-.933.274-.584.19-1.229-.222-1.725l-4.551-5.347C18.048 14.998 17 15 17 15c-1.103 0-2 .897-2 2v3.5c0 .276-.224.5-.5.5s-.5-.224-.5-.5V17c0-1.103-.897-2-2-2s-2 .897-2 2v1.5c0 .276-.224.5-.5.5s-.5-.224-.5-.5V17c0-1.103-.897-2-2-2 0 0-1.08-.005-1.118-.014ZM12 14c1.042 0 1.962.534 2.5 1.343C15.038 14.534 15.958 14 17 14h.224l-2.553-3H9.233l-2.521 3h.289c1.042 0 1.962.534 2.5 1.343.538-.809 1.458-1.343 2.5-1.343Zm7.5-6c-.585 0-1.145-.208-1.59-.581C17.339 7.796 16.676 8 16 8h-1.5c-.276 0-.5-.224-.5-.5s.224-.5.5-.5H16c.598 0 1.16-.214 1.629-.621a.488.488 0 0 1 .37-.12c.135.011.259.077.345.182.29.355.711.559 1.156.559.827 0 1.5-.673 1.5-1.5S20.327 4 19.5 4c-.151 0-.31.029-.484.089a.4913.4913 0 0 1-.39-.027.4988.4988 0 0 1-.251-.298c-.453-1.461-2.186-2.23-3.6-1.43-.23.13-.524.059-.669-.167C13.643 1.436 12.856 1 12 1s-1.644.437-2.106 1.167a.5004.5004 0 0 1-.669.167c-1.415-.801-3.147-.031-3.6 1.43a.5016.5016 0 0 1-.251.298.5041.5041 0 0 1-.39.027C4.809 4.029 4.651 4 4.5 4 3.673 4 3 4.673 3 5.5S3.673 7 4.5 7c.445 0 .866-.204 1.156-.559.086-.104.21-.17.345-.182.131-.014.269.031.37.12C6.84 6.785 7.402 7 8 7h1.5c.276 0 .5.224.5.5s-.224.5-.5.5H8c-.676 0-1.339-.204-1.91-.581A2.467 2.467 0 0 1 4.5 8C3.121 8 2 6.878 2 5.5c0-1.491 1.325-2.704 2.84-2.474C5.407 1.797 6.625 1 8 1c.45 0 .89.089 1.313.267C9.974.467 10.95 0 12 0s2.025.466 2.687 1.267C15.111 1.09 15.55 1 16 1c1.375 0 2.593.797 3.16 2.026C20.676 2.797 22 4.009 22 5.5 22 6.878 20.879 8 19.5 8Z"/></svg>
