<svg xmlns="http://www.w3.org/2000/svg" viewBox="0 0 24 24"><path d="M11.5 20a.493.493 0 0 1-.213-.048c-.25-.118-.356-.416-.239-.666l2.848-6.03c.142-.223.109-.41.044-.531-.036-.068-.143-.225-.346-.225H9.407c-.516 0-.975-.281-1.227-.752-.258-.48-.237-1.053.056-1.494l2.812-5.967c.118-.249.416-.357.666-.239.25.118.356.416.239.666l-2.848 6.03c-.142.223-.109.41-.044.532.036.067.143.225.346.225h4.187c.516 0 .975.281 1.228.752.258.48.235 1.053-.057 1.494l-2.812 5.967a.4997.4997 0 0 1-.453.287Zm10.473-4h.527c.827 0 1.5-.673 1.5-1.5v-5c0-.827-.673-1.5-1.5-1.5h-.527c-.25-2.247-2.16-4-4.473-4h-3c-.276 0-.5.224-.5.5s.224.5.5.5h3C19.43 5 21 6.57 21 8.5c0 .276.224.5.5.5h1c.275 0 .5.224.5.5v5c0 .276-.225.5-.5.5h-1c-.276 0-.5.224-.5.5 0 1.93-1.57 3.5-3.5 3.5h-3c-.276 0-.5.224-.5.5s.224.5.5.5h3c2.312 0 4.223-1.753 4.473-4ZM9 19.5c0-.276-.224-.5-.5-.5h-4C2.57 19 1 17.43 1 15.5v-7C1 6.57 2.57 5 4.5 5h4c.276 0 .5-.224.5-.5S8.776 4 8.5 4h-4C2.019 4 0 6.019 0 8.5v7C0 17.981 2.019 20 4.5 20h4c.276 0 .5-.224.5-.5Z"/></svg>
