<svg xmlns="http://www.w3.org/2000/svg" viewBox="0 0 24 24"><path d="M2 23.001c0 .552-.448 1-1 1s-1-.448-1-1 .448-1 1-1 1 .448 1 1Zm-2-6v1c3.309 0 6 2.691 6 6h1c0-3.859-3.141-7-7-7Zm0-5v1c6.065 0 11 4.935 11 11h1c0-6.617-5.383-12-12-12Zm17.5-4v5h-5v-5h5Zm-1 1h-3v3h3v-3Zm6.542-3.375-6.5-5.093a2.4961 2.4961 0 0 0-3.084 0L6.959 5.626C6.35 6.103 6 6.819 6 7.594v3.777c.341.163.675.335 1 .524V7.594c0-.465.209-.895.575-1.181l6.5-5.093a1.4988 1.4988 0 0 1 1.85 0l6.501 5.093c.365.286.574.716.574 1.181v9.407H12.106c.189.325.362.659.524 1H24V7.594c0-.774-.35-1.491-.958-1.968Z"/></svg>
