<svg xmlns="http://www.w3.org/2000/svg" viewBox="0 0 24 24"><path d="m12 23.987-7.067-6.912C1.031 13.172 1.031 6.828 4.929 2.929 6.817 1.04 9.329 0 12 0s5.182 1.04 7.07 2.929c3.898 3.899 3.898 10.243 0 14.142L12 23.987ZM12 1c-2.404 0-4.664.936-6.364 2.636-3.509 3.509-3.509 9.219 0 12.728L12 22.589l6.367-6.229c3.505-3.505 3.505-9.215-.004-12.724C16.664 1.936 14.404 1 12 1Zm-1.467 14H7v-3.538l5.735-5.647c.972-.972 2.559-.971 3.532.003.975.975.975 2.561 0 3.536L10.533 15ZM8 14h2.123l5.44-5.356c.582-.582.582-1.534-.003-2.119s-1.537-.584-2.121 0L8 11.881V14Z"/></svg>
