<svg xmlns="http://www.w3.org/2000/svg" viewBox="0 0 24 24"><path d="M21.011 20.915c-.634.72-1.527 1.088-2.427 1.088-.758 0-1.521-.261-2.137-.794l-.593-.513a.5001.5001 0 0 1-.051-.705c.181-.21.496-.231.705-.051l.593.513c.919.792 2.366.702 3.159-.199 2.114-2.401 3.055-5.489 2.647-8.694-.608-4.789-4.193-8.561-8.922-9.386-3.269-.571-6.566.307-9.06 2.401C2.432 6.673 1 9.743 1 13c0 2.669.972 5.243 2.734 7.249.811.922 2.228 1.014 3.163.204l.594-.514a.5016.5016 0 0 1 .706.052c.18.209.157.525-.052.706l-.594.513c-1.347 1.165-3.396 1.031-4.568-.301A11.9711 11.9711 0 0 1 0 13c0-3.553 1.562-6.902 4.283-9.19 2.72-2.286 6.315-3.245 9.875-2.621 5.163.899 9.078 5.017 9.742 10.244.443 3.494-.583 6.861-2.89 9.481ZM14 13c0 1.103-.897 2-2 2s-2-.897-2-2c0-.37.102-.717.278-1.015L6.647 8.354c-.195-.195-.195-.512 0-.707s.512-.195.707 0l3.631 3.631C11.283 11.102 11.63 11 12 11c1.103 0 2 .897 2 2Zm-1 0c0-.552-.448-1-1-1s-1 .448-1 1 .448 1 1 1 1-.448 1-1Z"/></svg>
