<svg xmlns="http://www.w3.org/2000/svg" viewBox="0 0 24 24"><path d="M19.976 4.046C17.398 1.744 14.078.69 10.614 1.078 5.206 1.688.784 6.061.1 11.478c-.481 3.806.799 7.516 3.512 10.178.883.867 2.05 1.345 3.286 1.345h10.211c1.204 0 2.317-.427 3.135-1.203 2.423-2.3 3.757-5.406 3.757-8.747 0-3.436-1.467-6.718-4.024-9.004Zm-.421 17.026c-.631.598-1.5.928-2.446.928H6.897c-.973 0-1.891-.376-2.585-1.058-2.489-2.442-3.663-5.846-3.22-9.339.628-4.964 4.679-8.973 9.634-9.531.433-.049.862-.073 1.289-.073 2.701 0 5.254.97 7.294 2.793C21.655 6.889 23 9.898 23 13.05c0 3.063-1.224 5.913-3.445 8.022ZM12 11c-.37 0-.717.102-1.015.278L7.354 7.647c-.195-.195-.512-.195-.707 0s-.195.512 0 .707l3.631 3.631C10.102 12.283 10 12.63 10 13c0 1.103.897 2 2 2s2-.897 2-2-.897-2-2-2Zm0 3c-.552 0-1-.448-1-1s.448-1 1-1 1 .448 1 1-.448 1-1 1Zm-4.759 4.134c.202.188.215.504.026.706a.4976.4976 0 0 1-.366.16.4947.4947 0 0 1-.34-.134C4.933 17.357 3.999 15.219 3.999 13c0-.914.153-1.812.455-2.667.094-.26.379-.396.639-.305.26.092.396.378.305.639C5.133 11.414 5 12.199 5 13c0 1.941.817 3.812 2.241 5.134ZM20 13c0 2.219-.934 4.357-2.562 5.866a.4947.4947 0 0 1-.34.134.496.496 0 0 1-.366-.16.4995.4995 0 0 1 .026-.706c1.424-1.321 2.241-3.192 2.241-5.134 0-3.859-3.141-7-7-7-.801 0-1.586.134-2.333.398a.5008.5008 0 0 1-.639-.305.5012.5012 0 0 1 .305-.639c.855-.302 1.753-.455 2.667-.455 4.411 0 8 3.589 8 8Z"/></svg>
