<svg xmlns="http://www.w3.org/2000/svg" version="1.0" viewBox="0 0 678 779">
	<path d="M307.5 7.6c-96 10-178.2 56.1-235.9 132.4-31.9 42.3-53 91.7-62 145.5-4.2 24.7-5.2 66.5-2.2 91.1 8 67 37.9 131.4 88.4 190.9 11.5 13.5 41.5 43.2 53.2 52.7 5.2 4.2 50 40.6 99.5 80.7C298 741.1 338.7 774 339 774c.4 0 135-109 189.9-153.8 12.5-10.1 33.5-30.5 46-44.5 34.3-38.5 59.2-78.2 76.5-122 7.8-19.9 15.6-49.6 18.6-71.2 3.3-24 3.1-64.8-.4-89.7-12.7-89.2-59.3-167-133.3-222.4-34-25.5-79.6-46.2-122.8-55.9-25.7-5.7-35.5-6.7-70-7-17.6-.2-33.8-.1-36 .1zm55.3 109.5c50.6 5.5 98.6 28.5 134.6 64.5 18.1 18.1 31.6 37.1 43.2 60.9 15.3 31.6 22.4 62.3 22.4 97.5s-7.1 65.9-22.4 97.5c-22.1 45.4-55.7 79.7-100.6 102.4-32.9 16.7-64.1 24.1-101.3 24.1-36.1-.1-66.9-7.3-98.6-23.1-23.8-11.9-41.3-24.3-59-41.9-87-86.5-88.2-227.1-2.7-314.9 19.2-19.6 37.9-33.2 62.1-45.1 23.9-11.7 47.2-18.6 74-21.9 10.2-1.2 37.1-1.3 48.3 0z"/>
	<path d="M286.9 201.5c-6 1.9-12.4 8.2-15.7 15.3-3.1 6.9-4.2 20.3-2.2 29.1 2.8 13.1 12 26.3 21.6 31.1 5.8 2.9 14.6 3.7 20 2 5.4-1.8 12.8-9.1 15.5-15.3 2.8-6.4 3.8-21.2 1.9-29.6-2.8-12.9-12.4-26.3-22.2-30.9-6.2-2.9-13.2-3.5-18.9-1.7zm91.6-.6c-13 3.2-25 17.2-28.5 33.2-1.9 8.4-.9 23.2 1.9 29.4 4.5 10.1 13.2 16.4 22.7 16.5 8.4 0 14.1-2.6 21.1-9.6 10.6-10.5 14.8-22.3 14.1-38.9-.3-7.9-.8-10.2-3.6-15.8-3.8-7.7-8.7-12.2-15.6-14.2-5.3-1.6-7.4-1.7-12.1-.6zm-154 63.9c-5.3 2.6-10.9 8.6-13.6 14.7-2.8 6.2-3.8 21-1.9 29.4 4.1 18.7 18.7 33.3 33.5 33.4 10.9.1 18.1-4.9 23.4-16.3 3.4-7.3 4.2-22.8 1.6-31.6-3.6-12.3-11.1-22.7-20.3-28.1-6-3.6-16.9-4.2-22.7-1.5zm210.4-.4c-10.9 3.9-21.5 17.3-25 31.6-.7 3-1.3 8.9-1.3 13 .1 24.6 17.8 39.4 37.1 31.1 10.3-4.5 20.6-18.6 23.4-32 1.6-7.9.6-22.4-1.9-28.3-2.7-6.1-8.7-12.7-13.7-14.9-4.7-2.2-13.4-2.4-18.6-.5zm-103.3 38.7c-8 1.3-16.9 6.3-22.5 12.5-4.9 5.6-6.9 9.1-17.9 32.4-9.8 20.8-15 26.2-36.3 37.9-19.7 10.8-25.7 18-26.7 32.2-.9 13.4 4.6 26.1 16.1 36.6 13 11.8 27.5 12.9 62.2 4.6 12.6-3 17.3-3.7 29.5-4.1 14.1-.4 15-.3 32.5 3.6 31.4 7 41.9 7.6 53.9 3.2 14.6-5.5 27.6-24.7 27.6-40.9 0-16.4-6.3-24-31-37.6-19.8-10.9-22.1-13.8-38.3-47.5-10.8-22.5-17.7-29.2-33.4-32.5-7.5-1.6-8.6-1.6-15.7-.4z"/>
</svg>
