<svg xmlns="http://www.w3.org/2000/svg" viewBox="0 0 960 960"><g fill-rule="evenodd"><path fill-rule="nonzero" d="M720.9957 152.3354c12.4634.9407 24.9822 4.5568 35.8168 11.54 16.5708 10.68 27.1795 28.1726 27.1795 49.3314l-.001 1.2712.4128.0305c4.592.3485 8.94.8749 12.891 1.5754l.8406.1527c2.9448.5486 5.7277 1.1978 8.4181 2.0165l.6465.2009.8638-.0823c18.6525-1.7592 34.0123-2.0306 50.3275.0818l1.0891.1444c24.6158 3.3386 46.3135 11.9906 63.7415 27.9739 20.8004 19.0761 32.4158 46.1358 34.1216 79.5677 4.2147 82.6036.0606 189.4553-9.0122 233.7696-2.3982 11.7137-3.839 18.3055-5.545 24.4911l-.202.7262c-.0678.2416-.136.4829-.2049.724l-.2203.7656a195.3044 195.3044 0 0 1-1.176 3.8928c-3.944 12.6038-9.1002 23.523-16.435 33.619-15.901 21.887-39.8957 36.8677-75.7677 48.5404-14.235 4.6321-41.1483 12.2419-74.9517 21.2157l-.5627.1481-.2015.6204c-.715 2.1392-1.6033 4.2824-2.7104 6.4768l-.3387.6599c-3.7872 7.2539-8.4419 11.7926-13.9365 15.6069-2.6223 1.8204-5.263 3.2954-8.105 4.6547-3.7608 1.7988-8.002 3.4386-12.9087 5.081-7.9505 2.6612-18.0412 5.435-29.195 8.0793l-2.0939.4921c-22.3655 5.211-45.6486 9.1804-61.0567 10.077-17.056.9924-34.11-1.3764-50.9658-6.9435l-.0698-.0236-.6136.1413c-19.619 4.4954-38.8134 8.7755-57.411 12.7958l-.3754.0809-.0891.2328c-.5478 1.3929-1.1726 2.7938-1.8853 4.2157l-.3108.6108c-3.7617 7.2803-8.425 11.8749-13.9396 15.743-2.667 1.8708-5.3691 3.396-8.2866 4.806-3.905 1.8872-8.3402 3.62-13.485 5.36-8.399 2.8407-19.09 5.8102-30.9156 8.643-24.3925 5.8433-50.136 10.338-66.918 11.3246-22.5779 1.3275-45.096-3.0123-67.2263-12.6507l-.2127-.0932-1.7582.2615c-27.7354 4.0806-54.7023 6.6982-81.4517 7.4782l-2.2923.0624c-41.7262 1.0529-79.9843-2.5477-114.1136-12.0085-57.6908-15.9924-94.3925-47.9703-112.906-96.8036-7.6716-20.2352-12.1418-42.9013-14.4928-70.0404l-.1161-1.3622a500.1915 500.1915 0 0 1-.1676-2.0486l-.1074-1.3703C1.1301 594.9767.6575 574.416.6467 543.0958l-.0005-2.1615c-.0005-.6974-.0013-1.3892-.0026-2.0784l-.0023-1.0322-.0048-1.5457-.004-1.0319c-.033-7.7507-.1266-15.816-.3052-28.357-.201-14.1178-.3274-24.4333-.3372-32.8348l-.0006-2.77c0-5.299.0564-9.8506.1604-14.2045l.0231-.9302a493.292 493.292 0 0 1 .1088-3.6842l.0477-1.3773c.0661-1.8381.1425-3.6869.2295-5.5896 1.016-22.2117 3.5684-40.4224 8.5667-56.9734 12.6045-41.7381 40.6584-70.1092 86.2398-85.5029 31.0939-10.501 74.0685-18.3733 134.8778-25.6636l.0377-.0056.174-.3833.3377-.7263c6.6508-14.0935 17.7083-24.9801 32.2276-30.7187 14.8476-5.8684 33.0666-8.5808 55.4072-8.9542l.2655-.0025.187-.4131c2.7962-6.1208 6.378-12.0468 10.6001-17.4713l.4718-.6007c13.6215-17.1874 33.2016-28.9018 56.835-31.653 1.826-.2125 3.7103-.4483 6.1296-.7637 12.3164-1.6052 18.2612-2.3366 23.4848-2.5875l.538-.0242a90.256 90.256 0 0 1 .5343-.021l.532-.0177a97.371 97.371 0 0 1 2.6727-.0433l.823.0005c1.2009.0048 2.4584.0273 3.8364.063 15.4205.4 29.5494 4.1935 42.8998 12.434 6.9705 4.3024 13.4538 9.6726 19.5804 16.1238 2.1286 2.2413 4.0611 4.4598 6.37 7.2393 4.4032 5.3005 5.1228 6.181 5.2731 6.3396l.02.0201a.1319.1319 0 0 0 .013.0109c.0115.0068.0157.0075.0225.0109.0213.0129.0438.0308.089.0745.3176.3066.8327.798 1.4733 1.407l.2282.2169.1935-.1974c9.0975-9.2556 20.688-15.2947 34.3318-16.6625l.6033-.0573c10.7156-.9618 22.7353-2.2496 36.0452-3.864a40 40 0 0 1 12.8192.5177l23.204 4.7375.1693-.174c1.859-1.9268 3.5036-3.679 4.9288-5.2495l.3517-.3889c2.113-2.3439 3.5482-4.0805 4.1892-4.9762.343-.4794.8889-1.3053 1.7022-2.5905.2142-.3384.8134-1.296 1.4505-2.3139l.32-.5114a871.394 871.394 0 0 1 1.442-2.299l.5564-.8772c4.8144-7.5588 8.9054-13.1368 14.251-18.5955 9.381-9.5793 20.5804-16.288 34.5408-18.234 18.4511-2.572 35.3584-3.8401 48.5898-2.8415zm-226.525 587.2682-2.4848.5113c-37.3147 7.6741-71.4171 14.0436-100.9028 18.7458-.258.0411-7.134 1.3621-16.0908 3.0461 6.746 1.0113 13.4507 1.3208 20.114.929 28.0305-1.648 90.2262-16.0521 99.3644-23.2322zM837.627 308.7843c-132.8297 28.8798-229.0816 47.8834-288.8634 57.0247-66.2405 10.1288-132.2675 17.448-200.7837 23.007-35.453 2.8764-113.5878 7.9716-117.688 8.3238-80.806 6.9403-126.1174 43.9304-126.1174 97.0244v.1925l-.0008.953c-.001.7568-.0032 1.5015-.0065 2.243l-.0038.7406c-.002.37-.0044.74-.0072 1.111l-.0058.7434c-.0526 6.2117-.198 12.8933-.503 25.0693-.3204 12.782-.4686 20.046-.509 27.2901l-.0062 1.3049a785.9007 785.9007 0 0 0-.0053 2.1932l.0002 1.8766c.017 12.6668.3558 31.891 1.017 57.6397l.0164.6659.2789 2.686c10.5993 98.6012 54.9833 143.5448 135.3132 138.7257l2.4703-.163c1.1824-.0852 2.3316.039 3.4112.3408l1.209-.034.3808-.012-.3808.012a541.1502 541.1502 0 0 0 3.1597-.109l-2.779.097a542.5407 542.5407 0 0 0 3.2326-.114l-.4536.017a551.575 551.575 0 0 0 2.8888-.1156l-2.4352.0986a553.0008 553.0008 0 0 0 2.8286-.1154l-.3934.0168a561.9691 561.9691 0 0 0 3.0995-.1408l-2.706.124a563.5193 563.5193 0 0 0 3.2667-.1512l-.5607.0272a571.76 571.76 0 0 0 2.5535-.1287l-1.9928.1015a574.4978 574.4978 0 0 0 2.9932-.155l-1.0004.0535a582.2863 582.2863 0 0 0 3.3835-.1881l-2.3831.1346a585.0238 585.0238 0 0 0 2.9654-.1688l-.5823.0342a592.7787 592.7787 0 0 0 2.8052-.1708l-2.223.1366c.942-.056 1.8817-.1142 2.8193-.1745l-.5963.038a608.367 608.367 0 0 0 6.6809-.4596l-.969.071a624.5649 624.5649 0 0 0 3.2732-.2466l-2.3042.1756c.955-.071 1.9076-.144 2.8574-.2189l-.5532.0433a636.0235 636.0235 0 0 0 2.9444-.2365l-2.3912.1932a637.3632 637.3632 0 0 0 2.5293-.2045l-.138.0113a651.7412 651.7412 0 0 0 6.1369-.5365l-.5969.0546a683.7506 683.7506 0 0 0 11.6682-1.1668l-.2397.0258a716.6489 716.6489 0 0 0 5.9358-.6674l-.5355.0621a738.2292 738.2292 0 0 0 6.0157-.7223l-.7343.0907a760.94 760.94 0 0 0 5.7837-.735l-.206.0267a778.058 778.058 0 0 0 2.3465-.3104l-2.1405.2836c.8697-.114 1.735-.2288 2.5957-.3445l-.4552.061a801.3326 801.3326 0 0 0 8.301-1.1553l-.4751.0683a826.125 826.125 0 0 0 2.4483-.356l-1.9733.2877a820.8417 820.8417 0 0 0 2.342-.3418l-.3687.0541a844.7918 844.7918 0 0 0 5.5991-.8418l-.8862.1357c29.2454-4.4657 51.5286-9.4165 60.709-10.8806 34.4416-5.4925 73.9735-13.0831 115.0678-21.7216.8855-.1862 1.772-.3728 2.6591-.56l-2.6591.56c1.5771-.3315 3.1566-.6646 4.738-.9992l-2.0789.4392c1.631-.344 3.2645-.6898 4.9-1.037l-2.821.5978a3968.9918 3968.9918 0 0 0 13.347-2.8475l-2.0819.4472c1.8714-.4015 3.745-.8049 5.6205-1.21l-3.5387.7628c2.1426-.461 4.288-.9242 6.4358-1.3898l-2.897.627c1.65-.3565 3.3017-.7144 4.9546-1.0735l-2.0576.4465a4225.631 4225.631 0 0 0 4.6422-1.009l-2.5846.5625c1.9714-.4284 3.9446-.8586 5.9193-1.2905l-3.3347.728a4341.727 4341.727 0 0 0 5.2821-1.1544l-1.9474.4264c1.7636-.3858 3.5284-.773 5.294-1.1614l-3.3466.735c1.982-.4345 3.9655-.8707 5.9498-1.3085l-2.6032.5735c1.8027-.3966 3.6064-.7946 5.4106-1.1938l-2.8074.6203c1.5343-.3385 3.0691-.678 4.6044-1.0183l-1.797.398a4715.6008 4715.6008 0 0 0 10.7462-2.3912c3.3372-.7466 6.6742-1.497 10.0096-2.2505l.5402-.1221-.5402.1221a4772.857 4772.857 0 0 0 4.583-1.0377l-4.0428.9156c1.9602-.4431 3.9198-.8873 5.8785-1.3325l-1.8357.417c1.3828-.3139 2.7653-.6282 4.1472-.943l-2.3115.526a5148.5286 5148.5286 0 0 0 6.8558-1.5633l-.4462.102a5236.702 5236.702 0 0 0 4.9523-1.1348l-4.5061 1.0328c2.006-.4588 4.0105-.9186 6.0132-1.3791l-1.5071.3463c1.8237-.4189 3.646-.8384 5.4664-1.2585l-3.9593.9122a5342.383 5342.383 0 0 0 6.037-1.392l-2.0777.4798c54.3668-12.5466 107.1897-25.6312 150.5688-36.9022l.7066-.1837a4586.0493 4586.0493 0 0 0 17.2735-4.5263l3.171-.839c8.2484-2.1861 16.0376-4.278 23.298-6.255a2959.2471 2959.2471 0 0 0 2.33-.6355l-1.652.4508a2898.481 2898.481 0 0 0 5.35-1.4636l-1.8432.5055c.8283-.2268 1.649-.452 2.4621-.6756l-.619.1701c6.7452-1.8525 12.9747-3.5914 18.6252-5.198a1631.7858 1631.7858 0 0 0 3.3592-.959c4.0415-1.1589 7.7492-2.2406 11.1015-3.2387l-.0106.0031a766.65 766.65 0 0 0 3.3286-.999c2.5557-.7735 4.8584-1.4867 6.9013-2.1375a306.42 306.42 0 0 0 1.846-.5941c59.7676-19.4483 64.7416-43.6742 72.7409-82.7453 7.624-37.2383 12.0114-132.2146 8.7837-212.0403l.078.5869c-2.719-20.9919-13.9314-31.3163-32.9962-34.6703-14.1338-2.4865-29.0108-.9724-47.3827 3.022zm-3.005-51.7842-1.4288.0045c-4.6676.033-9.1654.2409-13.3754.5304.0514.6069.0772 1.2257.0772 1.8568 0 6.8084-2.9995 12.1784-7.2945 15.9946-2.1998 1.9546-4.5135 3.307-7.0453 4.3954-3.0413 1.3074-6.4708 2.2303-10.4249 2.9493-6.5853 1.1973-14.9342 1.8394-23.7178 1.8394-3.9318 0-6.9533-.0262-9.4203-.1176-1.5806 5.3-4.6912 10.0361-9.2078 13.7162-5.5098 4.4892-12.231 6.8215-20.0639 7.753-6.3318.7531-17.6195 2.1718-29.387 3.6747l-1.3864.1771-.6944.0889-1.5318.196-3.0623.3928-1.5261.1962c-4.824.6202-9.554 1.232-13.8804 1.795-7.5427.9816-19.9827 1.8479-31.9658 1.9137-18.1065.0994-33.8928-1.4778-46.427-5.5366-12.1842-3.9454-21.4323-6.3662-27.3052-7.2695l-.2074-.0315-56.6735 6.9944c-4.9199.6071-9.542-.6043-13.299-3.0409l.0004 5.0606c0 3.6071-1.5908 6.4853-3.951 8.6503-1.3292 1.2195-2.8608 2.1698-4.6665 3.0225-2.673 1.2625-6.2256 2.416-10.8528 3.5793-8.706 2.1889-21.7553 4.5264-39.5935 7.0927-21.2623 3.0588-35.1294 4.7328-48.0938 5.4959l-1.1943.0679-.5956.032-1.1888.0603c-1.1874.0577-2.3714.108-3.557.1513-20.2528.7385-36.3211-1.1284-48.853-6.5195-2.1183-.9113-5.4784-2.3826-8.9325-3.8994l-.8302-.3647-.7013-.308c-5.021-2.2063-9.883-4.3481-11.0693-4.8483-4.5395-1.9142-6.9215-2.685-8.9492-2.9591-.6758-.0914-1.3724-.136-2.1666-.136-4.9153 0-20.3002 1.3957-45.3548 4.1535-5.577.614-10.4823-3.462-11.0416-8.9-59.8035 6.671-111.8579 14.614-145.6187 26.0157C28.6346 367.778 40.6465 434.847 40.6465 541.985c0 105.5451 4.3845 176.5598 96.22 204.0695-29.143-26.5403-46.803-69.4868-52.643-128.238a10 10 0 0 1-.0457-.7307c-.7007-27.1164-1.0514-47.1676-1.0514-60.1906 0-1.0694.002-2.1163.0059-3.156l.0039-.8897c.0375-7.554.1872-14.9573.5174-28.1335.2968-11.844.4405-18.4146.4945-24.4083l.0058-.6893.0026-.3432.005-.724c.0037-.6027.0066-1.2042.0087-1.8094l.0021-.7283.0014-.7339.0007-.7413.0001-.374c0-64.9159 54.2564-109.2082 144.406-116.951 4.3594-.3745 82.5577-5.4739 117.782-8.3317 68.0774-5.5233 133.6489-12.792 199.378-22.8427 59.2696-9.063 155.1847-28.0001 287.6374-56.798 8.4453-1.836 15.3543-3.0585 23.2966-3.8668 11.2902-1.149 21.9314-1.0454 31.8005.6908 7.5031 1.32 14.3232 3.5516 20.3487 6.725-15.153-29.6948-47.2693-35.7693-74.2017-35.7897zM734.413 683.5064l-.1804.0463c-25.1639 6.473-52.5104 13.3106-80.1927 20.011a6135.1681 6135.1681 0 0 1-7.2544 1.7513c29.5707-3.0846 83.3306-15.9198 87.6275-21.8086zM422.5779 232.438h-.5626c-.0623 0-.1246 0-.1868.001l-.3733.0038c-3.1877.0419-6.4449.3383-13.1679 1.1705l-.8407.1046c-2.1464.2683-4.6306.5878-7.55.9667-2.623.3405-4.7151.6012-6.7996.8428-9.8705 1.1442-17.6962 5.8066-23.3924 12.9639-4.4087 5.5394-7.0289 12.2196-7.0289 15.698v20.6585c0 6.612-6.3024 11.4038-12.6737 9.636l-31.5277-8.7484-.294.0068c-15.6876.3699-27.6254 2.1703-35.6532 5.2282l-.434.168c-3.389 1.334-5.9298 4.8797-7.279 11.2814l-.0408.1936.2166-.023c18.4253-1.9427 29.9473-2.9165 35.007-2.9397l.1823-.0004c1.6692 0 3.259.1016 4.846.3162 4.167.5633 8.0069 1.806 14.0405 4.35 1.2712.5361 6.0323 2.632 10.9607 4.7978l1.2689.5575c3.6643 1.6095 7.2638 3.1871 9.4365 4.1218 9.272 3.9888 22.6665 5.545 40.2206 4.9049 14.0998-.5142 28.3236-2.1374 52.5105-5.617 17.2123-2.4761 29.6682-4.7073 37.5648-6.6927 1.5925-.4004 2.9676-.7837 4.1128-1.1394l.234-.074v-20.3276c0-2.1516-.6376-3.996-2.2856-6.3547l-.231-.325c-1.4268-1.9732-3.477-4.2105-6.6825-7.3212-.7781-.7551-2.9897-2.8427-5.2606-4.9856l-.6198-.5849c-2.064-1.9476-4.0736-3.845-4.9968-4.7327-1.5104-1.4525-3.0076-3.0914-4.7949-5.1955-.3864-.455-1.1425-1.3627-1.9168-2.2956l-.332-.4002c-1.0483-1.264-2.038-2.4622-2.091-2.5258-1.6592-1.989-2.9309-3.4427-4.1566-4.728-3.2553-3.4133-6.418-6.0221-9.5676-7.958-5.3888-3.3122-10.9174-4.7903-17.914-4.971a91.1106 91.1106 0 0 0-1.9473-.0316zm288.1285-30.491-.575.0008c-8.4962.0348-19.7057 1.0439-31.607 2.7097-3.0589.4281-7.0581 4.3114-12.3825 12.4651l-.2865.4409c.0086-.0133.0025-.0032-.0169.0283l-.0563.0909c-.398.6404-2.2747 3.6385-4.1335 6.5518l-.3975.622c-1.3204 2.0634-2.5772 3.9945-3.2248 4.9032-3.7462 5.256-10.413 12.6613-20.1191 22.392l-1.0516 1.0514c-2.8352 2.8277-5.9189 5.8457-9.2537 9.0582a10.0004 10.0004 0 0 1-6.6816 2.7948l-.3227.003a9.9982 9.9982 0 0 1-1.942-.2037l-42.553-8.7255-1.424.1718c-12.1004 1.4503-23.1967 2.6376-33.2911 3.5618l-1.2566.1142c-3.8125.3436-7.836 5.5862-11.0883 16.9307l-.03.1015 45.1164-5.5676a10.0001 10.0001 0 0 1 1.3306-.0747l.4442.0146.4434.0343c8.2444.8231 20.0555 3.779 35.7541 8.8625 8.5134 2.7568 20.8804 4.063 35.3423 4.0815l.8367-.0004c.2796-.0006.56-.0016.8412-.0032 10.722-.0588 21.9256-.839 28.259-1.6632a9460.292 9460.292 0 0 1 17.0307-2.1997l1.5397-.1974c.714-.0915 1.4279-.1828 2.1407-.274l1.424-.182c11.8496-1.5134 23.2268-2.9431 29.6617-3.7085 1.518-.1805 2.7368-.444 3.6427-.7584a8.7823 8.7823 0 0 0 .3193-.1174l.0569-.0234v-61.9927c0-3.1622-1.2427-5.3217-4.0008-7.1908l-.2809-.186c-3.124-2.0218-7.7421-3.3612-12.4785-3.7202-1.7164-.13-3.6368-.1938-5.7297-.1963zm89.1883 57.469-.3015.0304-.3766.0381c-8.1858.8285-20.3821 1.9901-36.019 3.4892l-.0011 1.4983c2.0876.0718 4.7698.0985 8.216.0985 15.6862 0 28.4107-2.3056 28.4822-5.1546z"/><ellipse cx="640.7859" cy="395.6434" rx="11.393" ry="15.5359"/></g></svg>
